<svg id="Layer_1" data-name="Layer 1" xmlns="http://www.w3.org/2000/svg" xmlns:xlink="http://www.w3.org/1999/xlink" viewBox="0 0 561.6 374.4"><defs><style>.cls-1{fill-rule:evenodd;fill:url(#GradientFill_1);}</style><linearGradient id="GradientFill_1" x1="280.8" y1="200.49" x2="280.8" y2="217.62" gradientUnits="userSpaceOnUse"><stop offset="0" stop-color="#000002"/><stop offset="1" stop-color="#000002"/></linearGradient></defs><path class="cls-1" d="M310,200.49H244.82a46.37,46.37,0,0,0,72,0Zm-58.4-66.32h0c0-.24,0-.48,0-.72v-.06c0-.23,0-.47,0-.7v-.05c0-.23,0-.46,0-.69v-.06c0-.23,0-.45.06-.68v-.07c0-.22.05-.44.08-.67v-.06l.09-.66v-.06c0-.21.07-.43.1-.64l0-.09.12-.61,0-.13c0-.19.09-.39.13-.58l0-.13c0-.19.09-.39.14-.58l0-.14c.05-.18.09-.36.14-.54l.06-.18c0-.16.09-.31.13-.46l.08-.26c.05-.13.09-.27.14-.41l.09-.27.15-.42.1-.27c0-.13.09-.26.14-.38l.12-.32.13-.29.14-.34.13-.31c.06-.13.12-.25.17-.38h0l.11-.22v0c.07-.13.13-.27.19-.4l0,0,.11-.23.21-.42.06-.1.3-.56,0,0c.11-.21.23-.41.34-.61l0,0c.12-.21.25-.41.38-.62a29.17,29.17,0,0,1,5-6l.24-.23.25-.22h0l.33-.29.2-.17.33-.27.2-.16L263,111l.18-.14.35-.26.23-.17.31-.22.28-.19.3-.2.31-.21.27-.18.36-.22.21-.12.38-.23.21-.12.4-.22.21-.12.41-.21.2-.11.43-.21.24-.12.44-.2.2-.09.44-.2.22-.09L270,107l.18-.07.49-.19.16-.06.51-.18.16,0,.52-.17.14,0,.55-.16.12,0,.56-.15.14,0,.6-.14.09,0,.64-.14h.1a6.18,6.18,0,0,1,.62-.12l.09,0,.62-.1.11,0,.6-.08.13,0,.59-.07h.14l.6,0h.13l.63,0h.09l.66,0h.81q1.14,0,2.25.09h0l.74.06h0a30.88,30.88,0,0,1,3.61.6h0l.7.17h0l.69.19h0c.47.13.92.28,1.38.43h0c.22.07.45.15.67.24h0l.67.25h0l.66.27h0c.43.18.87.38,1.29.58h0c.43.21.85.42,1.26.65h0l.62.34h0l.6.36h0l.6.37h0l.59.39.57.4h0l.56.42h0l.56.42h0l.55.44.53.46h0l.52.46h0l.52.48.5.49h0l.49.5h0l.48.51h0l.46.53h0c.15.17.31.35.45.53h0c.15.18.3.36.44.55h0c.15.18.29.37.43.55l.41.57h0c.14.19.27.38.4.58h0c.13.19.26.39.38.59h0c.13.19.25.39.37.59s.25.41.36.61.24.41.35.62l.33.62h0c.11.21.21.42.31.64h0c.11.21.21.42.3.64s.19.43.29.65h0l.27.66h0c.08.22.17.44.25.67h0l.24.67h0c.07.23.15.45.22.68h0c.07.23.14.46.2.69h0c.07.23.13.47.19.7h0c.06.23.12.47.17.7h0c.06.24.11.47.16.71h0c0,.24.09.48.14.72h0l.12.72h0c0,.24.07.48.1.73h0c0,.24.06.49.08.73h0c0,.25,0,.49.07.74h0c0,.25,0,.5,0,.74h0q0,.38,0,.75h0c0,.25,0,.5,0,.76,0,.44,0,.88,0,1.31l0,.36c0,.13,0,.26,0,.38l0,.36,0,.37c0,.12,0,.24,0,.36s0,.24,0,.36l0,.37c0,.12,0,.24-.05.36l-.06.35-.06.37-.06.34c0,.13,0,.25-.07.38s0,.22-.07.32-.05.26-.08.38-.05.22-.07.32-.06.27-.1.4l-.07.29c0,.13-.07.26-.11.4s-.05.2-.08.3-.08.25-.11.38l-.09.3c-.05.13-.09.27-.14.4l-.08.26c-.05.14-.1.29-.16.43a2.25,2.25,0,0,1-.08.24c0,.14-.11.28-.16.43l-.09.22c-.06.15-.12.29-.17.43a2.29,2.29,0,0,0-.1.23l-.18.42-.1.22-.23.5-.06.13c-.1.19-.19.38-.28.56l0,.07-.28.54,0,.08a30.11,30.11,0,0,1-1.85,3l-.07.09-.34.48-.11.14c-.1.14-.2.27-.31.4l-.15.19-.29.36-.13.16-.31.37-.15.17-.31.35-.17.18-.3.32-.19.2-.3.3-.18.18-.32.31-.18.17-.31.29-.21.19-.32.29-.19.16-.34.28-.2.17-.34.28-.2.15-.34.26-.23.17-.33.24-.23.17-.35.24-.21.14-.37.24-.23.15-.36.22-.24.15-.35.21-.25.14-.36.2-.25.14-.36.19-.27.13-.36.19-.26.12-.38.18-.26.12-.39.17-.25.1-.41.17-.24.1-.42.16-.24.08-.45.16-.21.08-.45.14-.24.08-.43.13-.25.07-.46.12-.23.06-.44.11-.27.06-.47.11-.21,0-.51.1-.21,0-.51.08-.2,0-.55.07-.17,0-.61.07h-.12l-.64.06H283c-.74.06-1.49.09-2.24.09s-1.5,0-2.24-.09h-.07l-.67-.06h-.09l-.63-.07-.15,0-.57-.07-.18,0-.53-.09-.2,0-.52-.1-.2,0-.49-.11-.24-.06-.46-.11-.22-.05-.47-.13-.23-.07-.46-.14L272,162l-.47-.16-.2-.06-.47-.17-.21-.08-.44-.16-.23-.1-.43-.17-.22-.1-.42-.18-.24-.11-.4-.18-.23-.12-.4-.19-.23-.12-.39-.21-.23-.12-.38-.22-.23-.13-.37-.22-.22-.13-.38-.24-.22-.14-.37-.24-.2-.14-.37-.25-.21-.15-.35-.26-.21-.15-.34-.27-.21-.16-.34-.27-.2-.17-.33-.27-.2-.18-.32-.28-.2-.18-.31-.29-.2-.18-.32-.32-.17-.16-.32-.33-.16-.17-.3-.32-.18-.2-.3-.33-.16-.18-.3-.36-.15-.17-.28-.36-.15-.19c-.11-.13-.21-.26-.31-.4l-.11-.14-.34-.48-.07-.09c-.12-.16-.23-.33-.34-.49l-.06-.08c-.52-.77-1-1.57-1.45-2.39l-.1-.19-.23-.43-.08-.17c-.08-.16-.16-.31-.23-.46s-.07-.14-.1-.2l-.2-.44-.11-.24c-.05-.13-.11-.26-.17-.39l-.12-.29-.15-.36a2.49,2.49,0,0,0-.11-.29c0-.12-.09-.25-.14-.37s-.07-.19-.1-.29l-.14-.38-.09-.29c0-.13-.08-.26-.13-.38s-.05-.2-.08-.29l-.12-.4-.08-.29c0-.13-.07-.26-.11-.39s0-.2-.07-.3-.07-.27-.1-.41-.05-.19-.07-.29l-.09-.4-.06-.32c0-.13-.05-.26-.07-.38l-.06-.33c0-.13,0-.26-.07-.4s0-.2,0-.3l-.06-.41c0-.11,0-.22,0-.32s0-.27-.05-.4l0-.34,0-.38,0-.36c0-.13,0-.26,0-.39s0-.22,0-.33,0-.38,0-.57h0c0-.24,0-.48,0-.73Zm-10.4-24.06h0c-.58,1-1.13,1.94-1.65,3v0c-.17.33-.33.66-.49,1h0c-.16.33-.31.67-.46,1l0,0c-.15.33-.29.67-.43,1l0,0c-.14.33-.28.67-.41,1l0,0-.39,1v0c-.13.35-.25.7-.37,1.06h0a44,44,0,0,0-1.49,5.52h0c-.08.37-.15.75-.22,1.12v0c-.07.38-.13.75-.19,1.13v0c-.12.76-.22,1.53-.29,2.3h0c-.15,1.56-.23,3.14-.23,4.74a46.07,46.07,0,0,0,3.21,17h0c.21.53.43,1.05.65,1.57,0,.11.11.23.16.35l.11.25c.28.62.58,1.23.89,1.83l.12.25.37.7.12.22.5.89,0,.08.47.79.15.23c.13.23.28.46.42.68l.13.2c.18.29.37.58.56.86l0,.06.53.77.16.21.5.69.1.14.63.82.07.09.57.7.16.2.57.68.08.09.7.78.1.11c.19.22.39.43.59.64l.17.18.65.66.06.06.75.74.11.1.65.6.16.15c.51.46,1,.92,1.57,1.36l.12.09.69.56.16.13c.55.43,1.11.85,1.67,1.25l.12.08.77.53.12.09c.59.39,1.18.77,1.78,1.14l.13.08.81.47.12.08c.62.35,1.24.69,1.88,1l.11.07.91.44.05,0c.65.31,1.31.61,2,.89l.13.06.92.38.07,0c.68.27,1.36.52,2.05.75l.12.05c1,.35,2.1.66,3.17.94l.1,0q1.08.28,2.19.51h0l1.06.2.13,0c.73.13,1.48.24,2.23.34h0c.36,0,.71.09,1.07.12l.13,0c.75.07,1.51.13,2.27.17h.07l1.08,0h1.26a46.3,46.3,0,0,0,46.34-46h0c0-.1,0-.2,0-.3V89.22a23.6,23.6,0,0,0-14.32,11.46c-.82-.79-1.67-1.54-2.54-2.27h0l-.27-.22-.56-.45-.07,0c-.27-.22-.55-.43-.83-.64l0,0c-.29-.21-.58-.43-.88-.63l-.05,0-.84-.59-.08,0-.87-.57,0,0-.92-.57,0,0-.88-.52-.11-.06-.88-.49-.07,0-.93-.49-.1,0-.88-.44-.13-.06-.88-.41-.12-.06c-.32-.14-.65-.29-1-.42h0l-1-.4-.14,0-.92-.35-.1,0-1-.36h0l-1-.33-.1,0-1-.29-.14,0-1-.27-.08,0L291.3,89l-.1,0c-.33-.08-.67-.16-1-.22l-.11,0-1-.19-.1,0-1.09-.18h-.07l-1.06-.15h-.11c-.34,0-.69-.09-1-.12h-.1l-1.12-.1h0c-.37,0-.73-.06-1.1-.07h-.12l-1.06,0H282l-1.15,0h0l-1.1,0h-.14l-1.05,0h-.16l-1,.06h-.17l-1,.1H276l-1.06.12h-.07l-1.06.15h-.06l-1.05.17-.13,0-1,.2-.15,0-1,.22-.13,0c-.34.07-.67.15-1,.24l-.13,0-1,.28h0c-.7.2-1.4.41-2.09.65l-.09,0-1,.34-.11,0-.95.36-.13.06-.94.38-.09,0-1,.42h0l-1,.47h0l-.94.47-.1,0-.91.48-.09,0-.88.49-.12.07-.88.52-.05,0c-.62.38-1.23.77-1.82,1.17l0,0-.86.59-.08.06-.82.6-.1.08q-.41.28-.78.6l-.12.09-.78.62-.07.07c-.55.45-1.09.91-1.61,1.39l0,0-.76.7-.08.08-.71.69-.11.11-.68.7-.1.1c-.23.24-.45.48-.67.73l-.08.08c-.23.25-.45.5-.67.76h0A45.33,45.33,0,0,0,241.2,110.11Z"/></svg>